# xmcd
# 
# Track frame offsets:
#     182
#     21850
#     28635
#     48150
#     55245
#     64125
#     76475
#     87345
#     93840
#     109425
#     117510
#     127785
#     139862
#     152160
#     157275
#     174632
#     189697
#     202412
#     207880
#     219612
#     247700
#     264235
#     281500
#     292505
#     299952
#     318827
#     329752
# 
# Disc length: 4760
# 
# Revision: 1
# Processed by: cddbd v1.5.2PL0 Copyright (c) Steve Scherf et al.
# Submitted via: fre:ac v1.0.31
# 
DISCID=9d12961b
DTITLE=Hair - Hair
DYEAR=79
DGENRE=Musical
TTITLE0=Aquarius
TTITLE1=Sodomy
TTITLE2=Donna
TTITLE3=Colored Spade
TTITLE4=Manchester
TTITLE5=Abie Baby/Fourscore
TTITLE6=I'm Black
TTITLE7=Air
TTITLE8=Party Music
TTITLE9=My Conviction
TTITLE10=I Got Life
TTITLE11=Frank Mills
TTITLE12=Hair
TTITLE13=L.b.j.
TTITLE14=Electric Blues
TTITLE15=Hare Krishna
TTITLE16=Where Do I Go
TTITLE17=Black Boys
TTITLE18=White Boys
TTITLE19=Walking In Space
TTITLE20=Easy To Be Hard
TTITLE21=3-5-0-0
TTITLE22=Good Morning Starshine
TTITLE23=What A Piece Of Work Is Man
TTITLE24=Somebody To Love
TTITLE25=Don't Put It Down
TTITLE26=Let The Sunshine In
EXTD=
EXTT0=
EXTT1=
EXTT2=
EXTT3=
EXTT4=
EXTT5=
EXTT6=
EXTT7=
EXTT8=
EXTT9=
EXTT10=
EXTT11=
EXTT12=
EXTT13=
EXTT14=
EXTT15=
EXTT16=
EXTT17=
EXTT18=
EXTT19=
EXTT20=
EXTT21=
EXTT22=
EXTT23=
EXTT24=
EXTT25=
EXTT26=
PLAYORDER=
